<mxfile host="app.diagrams.net" agent="Mozilla/5.0 (Windows NT 10.0; Win64; x64) AppleWebKit/537.36 (KHTML, like Gecko) Chrome/131.0.0.0 Safari/537.36" version="26.0.4">
  <diagram name="Trang-1" id="3BMco6h1pLPV3Vacm1jX">
    <mxGraphModel dx="2927" dy="2283" grid="1" gridSize="10" guides="1" tooltips="1" connect="1" arrows="1" fold="1" page="1" pageScale="1" pageWidth="827" pageHeight="1169" math="0" shadow="0">
      <root>
        <mxCell id="0" />
        <mxCell id="1" parent="0" />
        <mxCell id="-duj_WoTrcP5eFWswwHe-1" value="DocGia" style="rounded=0;whiteSpace=wrap;html=1;" vertex="1" parent="1">
          <mxGeometry x="450" y="-70" width="120" height="60" as="geometry" />
        </mxCell>
        <mxCell id="-duj_WoTrcP5eFWswwHe-2" value="Sach" style="rounded=0;whiteSpace=wrap;html=1;" vertex="1" parent="1">
          <mxGeometry x="140" y="-410" width="120" height="60" as="geometry" />
        </mxCell>
        <mxCell id="-duj_WoTrcP5eFWswwHe-3" value="TaiKhoan" style="rounded=0;whiteSpace=wrap;html=1;" vertex="1" parent="1">
          <mxGeometry x="450" y="-670" width="120" height="60" as="geometry" />
        </mxCell>
        <mxCell id="-duj_WoTrcP5eFWswwHe-4" value="PhieuMuon" style="rounded=0;whiteSpace=wrap;html=1;" vertex="1" parent="1">
          <mxGeometry x="1230" y="-200" width="120" height="60" as="geometry" />
        </mxCell>
        <mxCell id="-duj_WoTrcP5eFWswwHe-5" value="PhieuTra" style="rounded=0;whiteSpace=wrap;html=1;" vertex="1" parent="1">
          <mxGeometry x="960" y="-690" width="120" height="60" as="geometry" />
        </mxCell>
        <mxCell id="-duj_WoTrcP5eFWswwHe-6" value="TenSach" style="ellipse;whiteSpace=wrap;html=1;" vertex="1" parent="1">
          <mxGeometry x="30" y="-640" width="120" height="80" as="geometry" />
        </mxCell>
        <mxCell id="-duj_WoTrcP5eFWswwHe-7" value="&lt;u&gt;MaSach&lt;/u&gt;" style="ellipse;whiteSpace=wrap;html=1;" vertex="1" parent="1">
          <mxGeometry x="150" y="-584.5" width="120" height="70" as="geometry" />
        </mxCell>
        <mxCell id="-duj_WoTrcP5eFWswwHe-8" value="TacGia" style="ellipse;whiteSpace=wrap;html=1;" vertex="1" parent="1">
          <mxGeometry x="-130" y="-610" width="120" height="80" as="geometry" />
        </mxCell>
        <mxCell id="-duj_WoTrcP5eFWswwHe-9" value="TheLoai" style="ellipse;whiteSpace=wrap;html=1;" vertex="1" parent="1">
          <mxGeometry x="-160" y="-490" width="120" height="80" as="geometry" />
        </mxCell>
        <mxCell id="-duj_WoTrcP5eFWswwHe-10" value="NhaXuatBan" style="ellipse;whiteSpace=wrap;html=1;" vertex="1" parent="1">
          <mxGeometry x="-110" y="-360" width="120" height="80" as="geometry" />
        </mxCell>
        <mxCell id="-duj_WoTrcP5eFWswwHe-11" value="GiaSach" style="ellipse;whiteSpace=wrap;html=1;" vertex="1" parent="1">
          <mxGeometry x="-40" y="-280" width="120" height="80" as="geometry" />
        </mxCell>
        <mxCell id="-duj_WoTrcP5eFWswwHe-12" value="TinhTrang" style="ellipse;whiteSpace=wrap;html=1;" vertex="1" parent="1">
          <mxGeometry x="90" y="-250" width="120" height="80" as="geometry" />
        </mxCell>
        <mxCell id="-duj_WoTrcP5eFWswwHe-15" value="" style="endArrow=none;html=1;rounded=0;entryX=0.298;entryY=1.023;entryDx=0;entryDy=0;entryPerimeter=0;exitX=0.5;exitY=0;exitDx=0;exitDy=0;" edge="1" parent="1" source="-duj_WoTrcP5eFWswwHe-2" target="-duj_WoTrcP5eFWswwHe-7">
          <mxGeometry width="50" height="50" relative="1" as="geometry">
            <mxPoint x="390" y="-440" as="sourcePoint" />
            <mxPoint x="440" y="-490" as="targetPoint" />
          </mxGeometry>
        </mxCell>
        <mxCell id="-duj_WoTrcP5eFWswwHe-16" value="" style="endArrow=none;html=1;rounded=0;entryX=0.5;entryY=1;entryDx=0;entryDy=0;" edge="1" parent="1" target="-duj_WoTrcP5eFWswwHe-6">
          <mxGeometry width="50" height="50" relative="1" as="geometry">
            <mxPoint x="200" y="-410" as="sourcePoint" />
            <mxPoint x="440" y="-490" as="targetPoint" />
          </mxGeometry>
        </mxCell>
        <mxCell id="-duj_WoTrcP5eFWswwHe-17" value="" style="endArrow=none;html=1;rounded=0;entryX=0.748;entryY=0.995;entryDx=0;entryDy=0;entryPerimeter=0;exitX=0.5;exitY=0;exitDx=0;exitDy=0;" edge="1" parent="1" source="-duj_WoTrcP5eFWswwHe-2" target="-duj_WoTrcP5eFWswwHe-8">
          <mxGeometry width="50" height="50" relative="1" as="geometry">
            <mxPoint x="390" y="-440" as="sourcePoint" />
            <mxPoint x="440" y="-490" as="targetPoint" />
          </mxGeometry>
        </mxCell>
        <mxCell id="-duj_WoTrcP5eFWswwHe-18" value="" style="endArrow=none;html=1;rounded=0;entryX=0.982;entryY=0.69;entryDx=0;entryDy=0;entryPerimeter=0;" edge="1" parent="1" target="-duj_WoTrcP5eFWswwHe-9">
          <mxGeometry width="50" height="50" relative="1" as="geometry">
            <mxPoint x="190" y="-410" as="sourcePoint" />
            <mxPoint x="440" y="-490" as="targetPoint" />
          </mxGeometry>
        </mxCell>
        <mxCell id="-duj_WoTrcP5eFWswwHe-19" value="" style="endArrow=none;html=1;rounded=0;exitX=1;exitY=0.5;exitDx=0;exitDy=0;" edge="1" parent="1" source="-duj_WoTrcP5eFWswwHe-10">
          <mxGeometry width="50" height="50" relative="1" as="geometry">
            <mxPoint x="390" y="-440" as="sourcePoint" />
            <mxPoint x="140" y="-370" as="targetPoint" />
          </mxGeometry>
        </mxCell>
        <mxCell id="-duj_WoTrcP5eFWswwHe-20" value="" style="endArrow=none;html=1;rounded=0;exitX=1;exitY=0;exitDx=0;exitDy=0;entryX=0;entryY=0.75;entryDx=0;entryDy=0;" edge="1" parent="1" source="-duj_WoTrcP5eFWswwHe-11" target="-duj_WoTrcP5eFWswwHe-2">
          <mxGeometry width="50" height="50" relative="1" as="geometry">
            <mxPoint x="390" y="-440" as="sourcePoint" />
            <mxPoint x="440" y="-490" as="targetPoint" />
          </mxGeometry>
        </mxCell>
        <mxCell id="-duj_WoTrcP5eFWswwHe-21" value="" style="endArrow=none;html=1;rounded=0;exitX=0.5;exitY=0;exitDx=0;exitDy=0;entryX=0.25;entryY=1;entryDx=0;entryDy=0;" edge="1" parent="1" source="-duj_WoTrcP5eFWswwHe-12" target="-duj_WoTrcP5eFWswwHe-2">
          <mxGeometry width="50" height="50" relative="1" as="geometry">
            <mxPoint x="390" y="-440" as="sourcePoint" />
            <mxPoint x="440" y="-490" as="targetPoint" />
          </mxGeometry>
        </mxCell>
        <mxCell id="-duj_WoTrcP5eFWswwHe-22" value="&lt;u&gt;MaDocGia&lt;/u&gt;" style="ellipse;whiteSpace=wrap;html=1;" vertex="1" parent="1">
          <mxGeometry x="160" y="-70" width="120" height="80" as="geometry" />
        </mxCell>
        <mxCell id="-duj_WoTrcP5eFWswwHe-24" value="TenDangNhap" style="ellipse;whiteSpace=wrap;html=1;" vertex="1" parent="1">
          <mxGeometry x="210" y="10" width="120" height="80" as="geometry" />
        </mxCell>
        <mxCell id="-duj_WoTrcP5eFWswwHe-25" value="HoTen" style="ellipse;whiteSpace=wrap;html=1;" vertex="1" parent="1">
          <mxGeometry x="290" y="90" width="120" height="80" as="geometry" />
        </mxCell>
        <mxCell id="-duj_WoTrcP5eFWswwHe-26" value="GioiTinh" style="ellipse;whiteSpace=wrap;html=1;" vertex="1" parent="1">
          <mxGeometry x="510" y="140" width="120" height="80" as="geometry" />
        </mxCell>
        <mxCell id="-duj_WoTrcP5eFWswwHe-27" value="NamSinh" style="ellipse;whiteSpace=wrap;html=1;" vertex="1" parent="1">
          <mxGeometry x="390" y="190" width="120" height="80" as="geometry" />
        </mxCell>
        <mxCell id="-duj_WoTrcP5eFWswwHe-29" value="DiaChi" style="ellipse;whiteSpace=wrap;html=1;" vertex="1" parent="1">
          <mxGeometry x="720" y="10" width="120" height="80" as="geometry" />
        </mxCell>
        <mxCell id="-duj_WoTrcP5eFWswwHe-30" value="SDT" style="ellipse;whiteSpace=wrap;html=1;" vertex="1" parent="1">
          <mxGeometry x="690" y="110" width="120" height="80" as="geometry" />
        </mxCell>
        <mxCell id="-duj_WoTrcP5eFWswwHe-31" value="" style="endArrow=none;html=1;rounded=0;exitX=0.5;exitY=1;exitDx=0;exitDy=0;entryX=0.5;entryY=0;entryDx=0;entryDy=0;" edge="1" parent="1" source="-duj_WoTrcP5eFWswwHe-1" target="-duj_WoTrcP5eFWswwHe-25">
          <mxGeometry width="50" height="50" relative="1" as="geometry">
            <mxPoint x="720" y="-30" as="sourcePoint" />
            <mxPoint x="770" y="-80" as="targetPoint" />
          </mxGeometry>
        </mxCell>
        <mxCell id="-duj_WoTrcP5eFWswwHe-32" value="" style="endArrow=none;html=1;rounded=0;exitX=0.5;exitY=1;exitDx=0;exitDy=0;entryX=0.348;entryY=-0.005;entryDx=0;entryDy=0;entryPerimeter=0;" edge="1" parent="1" source="-duj_WoTrcP5eFWswwHe-1" target="-duj_WoTrcP5eFWswwHe-27">
          <mxGeometry width="50" height="50" relative="1" as="geometry">
            <mxPoint x="720" y="-30" as="sourcePoint" />
            <mxPoint x="770" y="-80" as="targetPoint" />
          </mxGeometry>
        </mxCell>
        <mxCell id="-duj_WoTrcP5eFWswwHe-33" value="" style="endArrow=none;html=1;rounded=0;entryX=0;entryY=0;entryDx=0;entryDy=0;exitX=0.865;exitY=1.047;exitDx=0;exitDy=0;exitPerimeter=0;" edge="1" parent="1" source="-duj_WoTrcP5eFWswwHe-1" target="-duj_WoTrcP5eFWswwHe-26">
          <mxGeometry width="50" height="50" relative="1" as="geometry">
            <mxPoint x="520" y="-20" as="sourcePoint" />
            <mxPoint x="770" y="-80" as="targetPoint" />
          </mxGeometry>
        </mxCell>
        <mxCell id="-duj_WoTrcP5eFWswwHe-34" value="" style="endArrow=none;html=1;rounded=0;exitX=0.752;exitY=0.07;exitDx=0;exitDy=0;exitPerimeter=0;entryX=0.25;entryY=1;entryDx=0;entryDy=0;" edge="1" parent="1" source="-duj_WoTrcP5eFWswwHe-24" target="-duj_WoTrcP5eFWswwHe-1">
          <mxGeometry width="50" height="50" relative="1" as="geometry">
            <mxPoint x="720" y="-30" as="sourcePoint" />
            <mxPoint x="770" y="-80" as="targetPoint" />
          </mxGeometry>
        </mxCell>
        <mxCell id="-duj_WoTrcP5eFWswwHe-35" value="" style="endArrow=none;html=1;rounded=0;exitX=1;exitY=0.75;exitDx=0;exitDy=0;entryX=0.098;entryY=0.845;entryDx=0;entryDy=0;entryPerimeter=0;" edge="1" parent="1" source="-duj_WoTrcP5eFWswwHe-1" target="-duj_WoTrcP5eFWswwHe-30">
          <mxGeometry width="50" height="50" relative="1" as="geometry">
            <mxPoint x="720" y="-30" as="sourcePoint" />
            <mxPoint x="770" y="-80" as="targetPoint" />
          </mxGeometry>
        </mxCell>
        <mxCell id="-duj_WoTrcP5eFWswwHe-36" value="" style="endArrow=none;html=1;rounded=0;exitX=1;exitY=0.75;exitDx=0;exitDy=0;entryX=0;entryY=0.5;entryDx=0;entryDy=0;" edge="1" parent="1" source="-duj_WoTrcP5eFWswwHe-1" target="-duj_WoTrcP5eFWswwHe-29">
          <mxGeometry width="50" height="50" relative="1" as="geometry">
            <mxPoint x="720" y="-30" as="sourcePoint" />
            <mxPoint x="770" y="-80" as="targetPoint" />
          </mxGeometry>
        </mxCell>
        <mxCell id="-duj_WoTrcP5eFWswwHe-37" value="" style="endArrow=none;html=1;rounded=0;entryX=1;entryY=0.5;entryDx=0;entryDy=0;exitX=0;exitY=0.75;exitDx=0;exitDy=0;" edge="1" parent="1" source="-duj_WoTrcP5eFWswwHe-1" target="-duj_WoTrcP5eFWswwHe-22">
          <mxGeometry width="50" height="50" relative="1" as="geometry">
            <mxPoint x="720" y="-30" as="sourcePoint" />
            <mxPoint x="770" y="-80" as="targetPoint" />
          </mxGeometry>
        </mxCell>
        <mxCell id="-duj_WoTrcP5eFWswwHe-38" value="TenDangNhap" style="ellipse;whiteSpace=wrap;html=1;" vertex="1" parent="1">
          <mxGeometry x="410" y="-820" width="120" height="80" as="geometry" />
        </mxCell>
        <mxCell id="-duj_WoTrcP5eFWswwHe-39" value="MatKhau" style="ellipse;whiteSpace=wrap;html=1;" vertex="1" parent="1">
          <mxGeometry x="550" y="-810" width="120" height="80" as="geometry" />
        </mxCell>
        <mxCell id="-duj_WoTrcP5eFWswwHe-40" value="MaDocGia" style="ellipse;whiteSpace=wrap;html=1;" vertex="1" parent="1">
          <mxGeometry x="310" y="-750" width="120" height="80" as="geometry" />
        </mxCell>
        <mxCell id="-duj_WoTrcP5eFWswwHe-41" value="VaiTro" style="ellipse;whiteSpace=wrap;html=1;" vertex="1" parent="1">
          <mxGeometry x="620" y="-720" width="120" height="80" as="geometry" />
        </mxCell>
        <mxCell id="-duj_WoTrcP5eFWswwHe-42" value="" style="endArrow=none;html=1;rounded=0;exitX=0.948;exitY=0.68;exitDx=0;exitDy=0;exitPerimeter=0;entryX=0.25;entryY=0;entryDx=0;entryDy=0;" edge="1" parent="1" source="-duj_WoTrcP5eFWswwHe-40" target="-duj_WoTrcP5eFWswwHe-3">
          <mxGeometry width="50" height="50" relative="1" as="geometry">
            <mxPoint x="480" y="-710" as="sourcePoint" />
            <mxPoint x="530" y="-760" as="targetPoint" />
          </mxGeometry>
        </mxCell>
        <mxCell id="-duj_WoTrcP5eFWswwHe-43" value="" style="endArrow=none;html=1;rounded=0;exitX=0.312;exitY=-0.02;exitDx=0;exitDy=0;exitPerimeter=0;entryX=0.5;entryY=1;entryDx=0;entryDy=0;" edge="1" parent="1" source="-duj_WoTrcP5eFWswwHe-3" target="-duj_WoTrcP5eFWswwHe-38">
          <mxGeometry width="50" height="50" relative="1" as="geometry">
            <mxPoint x="480" y="-710" as="sourcePoint" />
            <mxPoint x="530" y="-760" as="targetPoint" />
          </mxGeometry>
        </mxCell>
        <mxCell id="-duj_WoTrcP5eFWswwHe-44" value="" style="endArrow=none;html=1;rounded=0;exitX=0.418;exitY=0.033;exitDx=0;exitDy=0;exitPerimeter=0;entryX=0.078;entryY=0.765;entryDx=0;entryDy=0;entryPerimeter=0;" edge="1" parent="1" source="-duj_WoTrcP5eFWswwHe-3" target="-duj_WoTrcP5eFWswwHe-39">
          <mxGeometry width="50" height="50" relative="1" as="geometry">
            <mxPoint x="480" y="-710" as="sourcePoint" />
            <mxPoint x="530" y="-760" as="targetPoint" />
          </mxGeometry>
        </mxCell>
        <mxCell id="-duj_WoTrcP5eFWswwHe-45" value="" style="endArrow=none;html=1;rounded=0;exitX=0.392;exitY=0.007;exitDx=0;exitDy=0;exitPerimeter=0;entryX=0;entryY=0.5;entryDx=0;entryDy=0;" edge="1" parent="1" source="-duj_WoTrcP5eFWswwHe-3" target="-duj_WoTrcP5eFWswwHe-41">
          <mxGeometry width="50" height="50" relative="1" as="geometry">
            <mxPoint x="480" y="-710" as="sourcePoint" />
            <mxPoint x="530" y="-760" as="targetPoint" />
          </mxGeometry>
        </mxCell>
        <mxCell id="-duj_WoTrcP5eFWswwHe-47" value="&lt;u&gt;MaPhieu&lt;/u&gt;" style="ellipse;whiteSpace=wrap;html=1;" vertex="1" parent="1">
          <mxGeometry x="850" y="-790" width="120" height="80" as="geometry" />
        </mxCell>
        <mxCell id="-duj_WoTrcP5eFWswwHe-48" value="MaDocGia" style="ellipse;whiteSpace=wrap;html=1;" vertex="1" parent="1">
          <mxGeometry x="1010" y="-830" width="120" height="80" as="geometry" />
        </mxCell>
        <mxCell id="-duj_WoTrcP5eFWswwHe-49" value="MaSach" style="ellipse;whiteSpace=wrap;html=1;" vertex="1" parent="1">
          <mxGeometry x="1150" y="-790" width="120" height="80" as="geometry" />
        </mxCell>
        <mxCell id="-duj_WoTrcP5eFWswwHe-50" value="NgayTra" style="ellipse;whiteSpace=wrap;html=1;" vertex="1" parent="1">
          <mxGeometry x="1130" y="-690" width="120" height="80" as="geometry" />
        </mxCell>
        <mxCell id="-duj_WoTrcP5eFWswwHe-51" value="" style="endArrow=none;html=1;rounded=0;exitX=0.387;exitY=-0.013;exitDx=0;exitDy=0;exitPerimeter=0;entryX=0.5;entryY=1;entryDx=0;entryDy=0;" edge="1" parent="1" source="-duj_WoTrcP5eFWswwHe-5" target="-duj_WoTrcP5eFWswwHe-47">
          <mxGeometry width="50" height="50" relative="1" as="geometry">
            <mxPoint x="950" y="-574.5" as="sourcePoint" />
            <mxPoint x="1000" y="-624.5" as="targetPoint" />
          </mxGeometry>
        </mxCell>
        <mxCell id="-duj_WoTrcP5eFWswwHe-52" value="" style="endArrow=none;html=1;rounded=0;exitX=0.4;exitY=0.027;exitDx=0;exitDy=0;exitPerimeter=0;entryX=0;entryY=1;entryDx=0;entryDy=0;" edge="1" parent="1" source="-duj_WoTrcP5eFWswwHe-5" target="-duj_WoTrcP5eFWswwHe-48">
          <mxGeometry width="50" height="50" relative="1" as="geometry">
            <mxPoint x="940" y="-614.5" as="sourcePoint" />
            <mxPoint x="1000" y="-624.5" as="targetPoint" />
          </mxGeometry>
        </mxCell>
        <mxCell id="-duj_WoTrcP5eFWswwHe-53" value="" style="endArrow=none;html=1;rounded=0;exitX=0.5;exitY=0;exitDx=0;exitDy=0;entryX=0;entryY=0.5;entryDx=0;entryDy=0;" edge="1" parent="1" source="-duj_WoTrcP5eFWswwHe-5" target="-duj_WoTrcP5eFWswwHe-49">
          <mxGeometry width="50" height="50" relative="1" as="geometry">
            <mxPoint x="950" y="-574.5" as="sourcePoint" />
            <mxPoint x="1000" y="-624.5" as="targetPoint" />
          </mxGeometry>
        </mxCell>
        <mxCell id="-duj_WoTrcP5eFWswwHe-54" value="" style="endArrow=none;html=1;rounded=0;exitX=1;exitY=0.25;exitDx=0;exitDy=0;entryX=0.092;entryY=0.24;entryDx=0;entryDy=0;entryPerimeter=0;" edge="1" parent="1" source="-duj_WoTrcP5eFWswwHe-5" target="-duj_WoTrcP5eFWswwHe-50">
          <mxGeometry width="50" height="50" relative="1" as="geometry">
            <mxPoint x="950" y="-574.5" as="sourcePoint" />
            <mxPoint x="1000" y="-624.5" as="targetPoint" />
          </mxGeometry>
        </mxCell>
        <mxCell id="-duj_WoTrcP5eFWswwHe-55" value="&lt;u&gt;MaPhieu&lt;/u&gt;" style="ellipse;whiteSpace=wrap;html=1;" vertex="1" parent="1">
          <mxGeometry x="1420" y="-220" width="120" height="80" as="geometry" />
        </mxCell>
        <mxCell id="-duj_WoTrcP5eFWswwHe-56" value="MaDocGia" style="ellipse;whiteSpace=wrap;html=1;" vertex="1" parent="1">
          <mxGeometry x="1430" y="-120" width="120" height="80" as="geometry" />
        </mxCell>
        <mxCell id="-duj_WoTrcP5eFWswwHe-57" value="NgayMuon" style="ellipse;whiteSpace=wrap;html=1;" vertex="1" parent="1">
          <mxGeometry x="1150" y="-70" width="120" height="80" as="geometry" />
        </mxCell>
        <mxCell id="-duj_WoTrcP5eFWswwHe-58" value="MaSach" style="ellipse;whiteSpace=wrap;html=1;" vertex="1" parent="1">
          <mxGeometry x="1280" y="-40" width="120" height="80" as="geometry" />
        </mxCell>
        <mxCell id="-duj_WoTrcP5eFWswwHe-59" value="NgayPhaiTra" style="ellipse;whiteSpace=wrap;html=1;" vertex="1" parent="1">
          <mxGeometry x="1060" y="-180" width="120" height="80" as="geometry" />
        </mxCell>
        <mxCell id="-duj_WoTrcP5eFWswwHe-60" value="" style="endArrow=none;html=1;rounded=0;entryX=0;entryY=0.75;entryDx=0;entryDy=0;exitX=1;exitY=0.5;exitDx=0;exitDy=0;" edge="1" parent="1" source="-duj_WoTrcP5eFWswwHe-59" target="-duj_WoTrcP5eFWswwHe-4">
          <mxGeometry width="50" height="50" relative="1" as="geometry">
            <mxPoint x="1050" y="-70" as="sourcePoint" />
            <mxPoint x="1100" y="-120" as="targetPoint" />
          </mxGeometry>
        </mxCell>
        <mxCell id="-duj_WoTrcP5eFWswwHe-61" value="" style="endArrow=none;html=1;rounded=0;exitX=0.718;exitY=0.105;exitDx=0;exitDy=0;exitPerimeter=0;entryX=0.135;entryY=1;entryDx=0;entryDy=0;entryPerimeter=0;" edge="1" parent="1" source="-duj_WoTrcP5eFWswwHe-57" target="-duj_WoTrcP5eFWswwHe-4">
          <mxGeometry width="50" height="50" relative="1" as="geometry">
            <mxPoint x="1050" y="-70" as="sourcePoint" />
            <mxPoint x="1100" y="-120" as="targetPoint" />
          </mxGeometry>
        </mxCell>
        <mxCell id="-duj_WoTrcP5eFWswwHe-62" value="" style="endArrow=none;html=1;rounded=0;exitX=0.5;exitY=0;exitDx=0;exitDy=0;entryX=0.375;entryY=1;entryDx=0;entryDy=0;entryPerimeter=0;" edge="1" parent="1" source="-duj_WoTrcP5eFWswwHe-58" target="-duj_WoTrcP5eFWswwHe-4">
          <mxGeometry width="50" height="50" relative="1" as="geometry">
            <mxPoint x="1050" y="-70" as="sourcePoint" />
            <mxPoint x="1100" y="-120" as="targetPoint" />
          </mxGeometry>
        </mxCell>
        <mxCell id="-duj_WoTrcP5eFWswwHe-63" value="" style="endArrow=none;html=1;rounded=0;exitX=0.648;exitY=0.96;exitDx=0;exitDy=0;exitPerimeter=0;entryX=0;entryY=0;entryDx=0;entryDy=0;" edge="1" parent="1" source="-duj_WoTrcP5eFWswwHe-4" target="-duj_WoTrcP5eFWswwHe-56">
          <mxGeometry width="50" height="50" relative="1" as="geometry">
            <mxPoint x="1050" y="-70" as="sourcePoint" />
            <mxPoint x="1100" y="-120" as="targetPoint" />
          </mxGeometry>
        </mxCell>
        <mxCell id="-duj_WoTrcP5eFWswwHe-64" value="" style="endArrow=none;html=1;rounded=0;entryX=0;entryY=0.5;entryDx=0;entryDy=0;exitX=1;exitY=0.5;exitDx=0;exitDy=0;" edge="1" parent="1" source="-duj_WoTrcP5eFWswwHe-4" target="-duj_WoTrcP5eFWswwHe-55">
          <mxGeometry width="50" height="50" relative="1" as="geometry">
            <mxPoint x="1050" y="-70" as="sourcePoint" />
            <mxPoint x="1100" y="-120" as="targetPoint" />
          </mxGeometry>
        </mxCell>
        <mxCell id="-duj_WoTrcP5eFWswwHe-66" style="edgeStyle=orthogonalEdgeStyle;rounded=0;orthogonalLoop=1;jettySize=auto;html=1;endArrow=baseDash;endFill=0;" edge="1" parent="1" source="-duj_WoTrcP5eFWswwHe-65" target="-duj_WoTrcP5eFWswwHe-3">
          <mxGeometry relative="1" as="geometry" />
        </mxCell>
        <mxCell id="-duj_WoTrcP5eFWswwHe-67" style="edgeStyle=orthogonalEdgeStyle;rounded=0;orthogonalLoop=1;jettySize=auto;html=1;endArrow=baseDash;endFill=0;" edge="1" parent="1" source="-duj_WoTrcP5eFWswwHe-65" target="-duj_WoTrcP5eFWswwHe-1">
          <mxGeometry relative="1" as="geometry" />
        </mxCell>
        <mxCell id="-duj_WoTrcP5eFWswwHe-65" value="Có" style="rhombus;whiteSpace=wrap;html=1;" vertex="1" parent="1">
          <mxGeometry x="470" y="-310" width="80" height="80" as="geometry" />
        </mxCell>
        <mxCell id="-duj_WoTrcP5eFWswwHe-70" style="edgeStyle=orthogonalEdgeStyle;rounded=0;orthogonalLoop=1;jettySize=auto;html=1;entryX=0.5;entryY=0;entryDx=0;entryDy=0;endArrow=ERoneToMany;endFill=0;" edge="1" parent="1" source="-duj_WoTrcP5eFWswwHe-68" target="-duj_WoTrcP5eFWswwHe-4">
          <mxGeometry relative="1" as="geometry" />
        </mxCell>
        <mxCell id="-duj_WoTrcP5eFWswwHe-72" style="edgeStyle=orthogonalEdgeStyle;rounded=0;orthogonalLoop=1;jettySize=auto;html=1;entryX=1;entryY=0.5;entryDx=0;entryDy=0;endArrow=ERone;endFill=0;" edge="1" parent="1" source="-duj_WoTrcP5eFWswwHe-68" target="-duj_WoTrcP5eFWswwHe-1">
          <mxGeometry relative="1" as="geometry" />
        </mxCell>
        <mxCell id="-duj_WoTrcP5eFWswwHe-68" value="Có" style="rhombus;whiteSpace=wrap;html=1;" vertex="1" parent="1">
          <mxGeometry x="760" y="-340" width="80" height="80" as="geometry" />
        </mxCell>
        <mxCell id="-duj_WoTrcP5eFWswwHe-75" style="edgeStyle=orthogonalEdgeStyle;rounded=0;orthogonalLoop=1;jettySize=auto;html=1;entryX=1;entryY=0.75;entryDx=0;entryDy=0;endArrow=ERone;endFill=0;" edge="1" parent="1" source="-duj_WoTrcP5eFWswwHe-74" target="-duj_WoTrcP5eFWswwHe-2">
          <mxGeometry relative="1" as="geometry" />
        </mxCell>
        <mxCell id="-duj_WoTrcP5eFWswwHe-76" style="edgeStyle=orthogonalEdgeStyle;rounded=0;orthogonalLoop=1;jettySize=auto;html=1;entryX=0.75;entryY=0;entryDx=0;entryDy=0;endArrow=ERoneToMany;endFill=0;" edge="1" parent="1" source="-duj_WoTrcP5eFWswwHe-74" target="-duj_WoTrcP5eFWswwHe-4">
          <mxGeometry relative="1" as="geometry" />
        </mxCell>
        <mxCell id="-duj_WoTrcP5eFWswwHe-74" value="Có" style="rhombus;whiteSpace=wrap;html=1;" vertex="1" parent="1">
          <mxGeometry x="850" y="-560" width="80" height="80" as="geometry" />
        </mxCell>
        <mxCell id="-duj_WoTrcP5eFWswwHe-83" style="edgeStyle=orthogonalEdgeStyle;rounded=0;orthogonalLoop=1;jettySize=auto;html=1;entryX=1;entryY=0.5;entryDx=0;entryDy=0;endArrow=ERone;endFill=0;exitX=0.5;exitY=1;exitDx=0;exitDy=0;" edge="1" parent="1" source="-duj_WoTrcP5eFWswwHe-77" target="-duj_WoTrcP5eFWswwHe-1">
          <mxGeometry relative="1" as="geometry">
            <mxPoint x="930" y="-39.99999999999977" as="sourcePoint" />
          </mxGeometry>
        </mxCell>
        <mxCell id="-duj_WoTrcP5eFWswwHe-77" value="Có" style="rhombus;whiteSpace=wrap;html=1;" vertex="1" parent="1">
          <mxGeometry x="970" y="-150" width="80" height="80" as="geometry" />
        </mxCell>
        <mxCell id="-duj_WoTrcP5eFWswwHe-81" style="edgeStyle=orthogonalEdgeStyle;rounded=0;orthogonalLoop=1;jettySize=auto;html=1;entryX=0.412;entryY=0.967;entryDx=0;entryDy=0;entryPerimeter=0;endArrow=ERoneToMany;endFill=0;" edge="1" parent="1" source="-duj_WoTrcP5eFWswwHe-77" target="-duj_WoTrcP5eFWswwHe-5">
          <mxGeometry relative="1" as="geometry" />
        </mxCell>
        <mxCell id="-duj_WoTrcP5eFWswwHe-86" style="edgeStyle=orthogonalEdgeStyle;rounded=0;orthogonalLoop=1;jettySize=auto;html=1;entryX=1;entryY=0.75;entryDx=0;entryDy=0;endArrow=ERone;endFill=0;" edge="1" parent="1" source="-duj_WoTrcP5eFWswwHe-84" target="-duj_WoTrcP5eFWswwHe-2">
          <mxGeometry relative="1" as="geometry" />
        </mxCell>
        <mxCell id="-duj_WoTrcP5eFWswwHe-87" style="edgeStyle=orthogonalEdgeStyle;rounded=0;orthogonalLoop=1;jettySize=auto;html=1;entryX=0.75;entryY=1;entryDx=0;entryDy=0;endArrow=ERoneToMany;endFill=0;" edge="1" parent="1" source="-duj_WoTrcP5eFWswwHe-84" target="-duj_WoTrcP5eFWswwHe-5">
          <mxGeometry relative="1" as="geometry" />
        </mxCell>
        <mxCell id="-duj_WoTrcP5eFWswwHe-84" value="Có" style="rhombus;whiteSpace=wrap;html=1;" vertex="1" parent="1">
          <mxGeometry x="600" y="-490" width="80" height="80" as="geometry" />
        </mxCell>
        <mxCell id="-duj_WoTrcP5eFWswwHe-90" style="edgeStyle=orthogonalEdgeStyle;rounded=0;orthogonalLoop=1;jettySize=auto;html=1;entryX=0.25;entryY=0;entryDx=0;entryDy=0;endArrow=ERone;endFill=0;" edge="1" parent="1" source="-duj_WoTrcP5eFWswwHe-88" target="-duj_WoTrcP5eFWswwHe-4">
          <mxGeometry relative="1" as="geometry" />
        </mxCell>
        <mxCell id="-duj_WoTrcP5eFWswwHe-88" value="có" style="rhombus;whiteSpace=wrap;html=1;" vertex="1" parent="1">
          <mxGeometry x="1120" y="-430" width="80" height="80" as="geometry" />
        </mxCell>
        <mxCell id="-duj_WoTrcP5eFWswwHe-89" style="edgeStyle=orthogonalEdgeStyle;rounded=0;orthogonalLoop=1;jettySize=auto;html=1;entryX=0.912;entryY=1.06;entryDx=0;entryDy=0;entryPerimeter=0;endArrow=ERone;endFill=0;" edge="1" parent="1" source="-duj_WoTrcP5eFWswwHe-88" target="-duj_WoTrcP5eFWswwHe-5">
          <mxGeometry relative="1" as="geometry" />
        </mxCell>
      </root>
    </mxGraphModel>
  </diagram>
</mxfile>
